<mxfile host="app.diagrams.net" modified="2021-03-05T14:44:49.654Z" agent="5.0 (Windows NT 10.0; Win64; x64) AppleWebKit/537.36 (KHTML, like Gecko) Chrome/88.0.4324.146 Safari/537.36" etag="SNC9bYAOTtJ0bZFjwTB8" version="14.4.4" type="github">
  <diagram id="oJvfH4bEGv6SfgIvTtBa" name="Page-1">
    <mxGraphModel dx="1255" dy="1101" grid="1" gridSize="10" guides="1" tooltips="1" connect="1" arrows="1" fold="1" page="1" pageScale="1" pageWidth="827" pageHeight="1169" math="0" shadow="0">
      <root>
        <mxCell id="0" />
        <mxCell id="1" parent="0" />
        <mxCell id="YVnBAnjnLG00O4DWIi16-1" value="" style="rounded=0;whiteSpace=wrap;html=1;" vertex="1" parent="1">
          <mxGeometry x="54" y="240" width="720" height="690" as="geometry" />
        </mxCell>
        <mxCell id="YVnBAnjnLG00O4DWIi16-2" value="ControllerA" style="rounded=1;whiteSpace=wrap;html=1;fillColor=#dae8fc;strokeColor=#6c8ebf;" vertex="1" parent="1">
          <mxGeometry x="140" y="340" width="120" height="60" as="geometry" />
        </mxCell>
        <mxCell id="YVnBAnjnLG00O4DWIi16-3" value="ControllerB" style="rounded=1;whiteSpace=wrap;html=1;fillColor=#dae8fc;strokeColor=#6c8ebf;" vertex="1" parent="1">
          <mxGeometry x="340" y="340" width="120" height="60" as="geometry" />
        </mxCell>
        <mxCell id="YVnBAnjnLG00O4DWIi16-4" value="ControllerC" style="rounded=1;whiteSpace=wrap;html=1;fillColor=#dae8fc;strokeColor=#6c8ebf;" vertex="1" parent="1">
          <mxGeometry x="570" y="340" width="120" height="60" as="geometry" />
        </mxCell>
        <mxCell id="YVnBAnjnLG00O4DWIi16-5" value="" style="endArrow=none;dashed=1;html=1;fillColor=#f8cecc;strokeColor=#b85450;" edge="1" parent="1">
          <mxGeometry width="50" height="50" relative="1" as="geometry">
            <mxPoint x="153" y="430" as="sourcePoint" />
            <mxPoint x="673" y="430" as="targetPoint" />
          </mxGeometry>
        </mxCell>
        <mxCell id="YVnBAnjnLG00O4DWIi16-6" value="ServiceA" style="rounded=1;whiteSpace=wrap;html=1;fillColor=#fff2cc;strokeColor=#d6b656;" vertex="1" parent="1">
          <mxGeometry x="140" y="480" width="120" height="60" as="geometry" />
        </mxCell>
        <mxCell id="YVnBAnjnLG00O4DWIi16-7" value="ServiceB" style="rounded=1;whiteSpace=wrap;html=1;fillColor=#fff2cc;strokeColor=#d6b656;" vertex="1" parent="1">
          <mxGeometry x="340" y="480" width="120" height="60" as="geometry" />
        </mxCell>
        <mxCell id="YVnBAnjnLG00O4DWIi16-8" value="ServiceC" style="rounded=1;whiteSpace=wrap;html=1;fillColor=#fff2cc;strokeColor=#d6b656;" vertex="1" parent="1">
          <mxGeometry x="570" y="480" width="120" height="60" as="geometry" />
        </mxCell>
        <mxCell id="YVnBAnjnLG00O4DWIi16-9" value="" style="endArrow=none;dashed=1;html=1;fillColor=#f8cecc;strokeColor=#b85450;" edge="1" parent="1">
          <mxGeometry width="50" height="50" relative="1" as="geometry">
            <mxPoint x="153" y="570" as="sourcePoint" />
            <mxPoint x="673" y="570" as="targetPoint" />
          </mxGeometry>
        </mxCell>
        <mxCell id="YVnBAnjnLG00O4DWIi16-10" value="&lt;span&gt;MapperA&lt;/span&gt;" style="rounded=1;whiteSpace=wrap;html=1;fillColor=#e1d5e7;strokeColor=#9673a6;" vertex="1" parent="1">
          <mxGeometry x="140" y="630" width="120" height="60" as="geometry" />
        </mxCell>
        <mxCell id="YVnBAnjnLG00O4DWIi16-11" value="&lt;span&gt;MapperB&lt;/span&gt;" style="rounded=1;whiteSpace=wrap;html=1;fillColor=#e1d5e7;strokeColor=#9673a6;" vertex="1" parent="1">
          <mxGeometry x="340" y="630" width="120" height="60" as="geometry" />
        </mxCell>
        <mxCell id="YVnBAnjnLG00O4DWIi16-12" value="&lt;span&gt;MapperC&lt;/span&gt;" style="rounded=1;whiteSpace=wrap;html=1;fillColor=#e1d5e7;strokeColor=#9673a6;" vertex="1" parent="1">
          <mxGeometry x="570" y="630" width="120" height="60" as="geometry" />
        </mxCell>
        <mxCell id="YVnBAnjnLG00O4DWIi16-13" value="" style="endArrow=none;dashed=1;html=1;fillColor=#f8cecc;strokeColor=#b85450;" edge="1" parent="1">
          <mxGeometry width="50" height="50" relative="1" as="geometry">
            <mxPoint x="153" y="720" as="sourcePoint" />
            <mxPoint x="673" y="720" as="targetPoint" />
          </mxGeometry>
        </mxCell>
        <mxCell id="YVnBAnjnLG00O4DWIi16-14" value="ModelA" style="rounded=1;whiteSpace=wrap;html=1;fillColor=#d5e8d4;strokeColor=#82b366;" vertex="1" parent="1">
          <mxGeometry x="140" y="780" width="120" height="60" as="geometry" />
        </mxCell>
        <mxCell id="YVnBAnjnLG00O4DWIi16-15" value="&lt;span&gt;ModelB&lt;/span&gt;" style="rounded=1;whiteSpace=wrap;html=1;fillColor=#d5e8d4;strokeColor=#82b366;" vertex="1" parent="1">
          <mxGeometry x="340" y="780" width="120" height="60" as="geometry" />
        </mxCell>
        <mxCell id="YVnBAnjnLG00O4DWIi16-16" value="&lt;span&gt;ModelC&lt;/span&gt;" style="rounded=1;whiteSpace=wrap;html=1;fillColor=#d5e8d4;strokeColor=#82b366;" vertex="1" parent="1">
          <mxGeometry x="570" y="780" width="120" height="60" as="geometry" />
        </mxCell>
        <mxCell id="YVnBAnjnLG00O4DWIi16-17" value="" style="shape=flexArrow;endArrow=classic;html=1;entryX=0.5;entryY=0;entryDx=0;entryDy=0;fillColor=#dae8fc;strokeColor=#6c8ebf;" edge="1" parent="1">
          <mxGeometry width="50" height="50" relative="1" as="geometry">
            <mxPoint x="420" y="120" as="sourcePoint" />
            <mxPoint x="420" y="240" as="targetPoint" />
          </mxGeometry>
        </mxCell>
        <mxCell id="YVnBAnjnLG00O4DWIi16-18" value="&lt;font style=&quot;font-size: 18px&quot;&gt;外部访问&lt;/font&gt;" style="text;html=1;strokeColor=none;fillColor=none;align=center;verticalAlign=middle;whiteSpace=wrap;rounded=0;fontSize=16;" vertex="1" parent="1">
          <mxGeometry x="420" y="190" width="130" height="20" as="geometry" />
        </mxCell>
      </root>
    </mxGraphModel>
  </diagram>
</mxfile>
